#!OML:ASF F:\VICON\USERDATA\INSTALL\rory3\rory3.ASF
:FULLY-SPECIFIED
:DEGREES
19
root -0.4844749058752501 18.37229007393141 -16.94369062605789 4.279486574647751 6.79008780750004 -3.0734750609521018
lfemur -39.821287247502156 -6.52977503416326 -17.462405842769794
ltibia 54.9098004487591
lfoot -0.17070497882816182 -5.47096589802035
ltoes -17.27779158690295
rfemur 11.074284955811578 2.892708366582492 33.78229283737117
rtibia 31.015409637542522
rfoot 17.597591983315336 -7.0694798299035915
rtoes -9.064132497668545
lowerback 11.898812747927781 1.5532901327779896 4.970349539850662
upperback -1.3770336610730096 2.947439387436857 1.8142371109090187
thorax -8.010720504072204 1.2533894253756865 -1.415350384301445
lowerneck -16.570814017342784 -6.113345249264812 -1.9988249808532137
upperneck 15.764383983952644 -8.097116527382076 1.2708680603746383
head 7.716879446064894 -3.8506043122010416 -0.18480876513200029
lclavicle -6.477656811165328e-16 -4.8606873629162415e-15
lhumerus -67.23548724056545 -7.878910382710799 98.21299571138717
lradius 103.38400904322617
lwrist 29.555099953349927
lhand -32.9394953968086 -0.24947649763892785
lfingers 7.125019999999998
lthumb -6.155845471812706 29.641101555827703
rclavicle -6.477656811165328e-16 -4.8606873629162415e-15
rhumerus -44.04030698297533 14.355293402295882 -97.42380419312757
rradius 124.49698605572587
rwrist -15.54649622002402
rhand -16.673109094933984 46.900780720203876
rfingers 7.125019999999998
rthumb 9.5507109964823 17.137280432985477
20
root -0.4514169894851202 18.53618747911476 -15.831490697582677 4.067707724224114 7.330526596014835 -2.7343363895304535
lfemur -37.366288836560074 -7.582652564061549 -18.03140513806764
ltibia 43.794104544468624
lfoot -0.7240517822552879 -6.990443901671297
ltoes -22.341887742617534
rfemur 13.473485540117906 3.643976907763422 33.59009311184525
rtibia 30.836509675018966
rfoot 24.185087098050804 -6.572690709328346
rtoes 0.9370340010612752
lowerback 11.83601310342205 1.616909508987936 5.277918691827725
upperback -1.7511096106987152 3.0586488126458597 1.4095902461852907
thorax -8.335727646184194 1.2680092659098188 -2.0414773550828507
lowerneck -16.388914779447294 -6.15459507814412 -1.9077867165440476
upperneck 16.668380248909358 -8.219775881699414 1.329027665103199
head 7.986755727564396 -3.8876439560776506 -0.20647745254274652
lclavicle -6.477657615146672e-16 -4.860687333305775e-15
lhumerus -69.30288646699685 -6.548523029077864 96.89720046358559
lradius 104.16200783211231
lwrist 30.977298578871633
lhand -34.64128942782764 0.9493244264846032
lfingers 7.125019999999998
lthumb -7.79859963670903 30.78549767631293
rclavicle -6.477657615146672e-16 -4.860687333305775e-15
rhumerus -45.75680486624924 14.971791856898603 -98.28600211321242
rradius 125.73398472950126
rwrist -17.347892117181107
rhand -14.087021448651365 60.120655690665934
rfingers 7.125019999999998
rthumb 12.045178565923745 30.48725316720826
21
root -0.49842402123419094 17.98345065696762 -14.92501768159169 3.4717155603269085 4.523320826402062 -2.9405042945356312
lfemur -34.744473643601815 -3.75320157565232 -19.177480710504014
ltibia 40.09983549230897
lfoot -4.6315803593292415 -7.28310707577692
ltoes -23.369969774094685
rfemur 8.8679068637693 3.9054569883627597 30.81382498317445
rtibia 35.23344344035081
rfoot 16.13257096703976 -7.7453954038366986
rtoes 12.19359774524215
lowerback 12.420872954508965 1.7201091481020376 4.297987160294236
upperback -1.512466067831724 3.4283221101127106 1.5544032372935468
thorax -7.922862284720806 1.3437404112260567 -1.7337090626571228
lowerneck -18.251406809886763 -5.541160596356555 -1.9109585635959299
upperneck 15.477856502081131 -7.806255767648798 1.924655213791238
head 7.404025814378211 -3.5879515104985615 -0.0980342007140611
lclavicle -6.511146961560837e-16 -4.8737526422702875e-15
lhumerus -69.2530392554273 -6.208395700620318 96.43193596861576
lradius 105.60651583131207
lwrist 30.113219904875603
lhand -33.024731301043396 0.7454090023476128
lfingers 7.125019999999998
lthumb -6.442748910329502 30.406217057675473
rclavicle -6.489169869408871e-16 -4.861525707009424e-15
rhumerus -48.06317125863805 14.317107955843609 -98.63836247678702
rradius 125.69918800740004
rwrist -16.617292214955704
rhand -16.833687035423385 39.49044761970538
rfingers 7.125019999999998
rthumb 8.872679435685292 9.24129669319157
22
root -0.48145514239630444 17.738813081526164 -13.939006590401107 2.8410325969264205 2.41539588881611 -2.482080169766678
lfemur -31.970039837007104 -2.913863622878125 -20.34573925252901
ltibia 38.93088032531389
lfoot -5.9959654958659385 -7.405323992735548
ltoes -24.316000141125095
rfemur 3.327750576198575 3.1487753648771863 28.564346519316018
rtibia 41.86233812293791
rfoot 10.95345249002378 -7.843500817011425
rtoes 15.387537362421552
lowerback 12.203698145365207 1.7524360925588645 3.263982913433723
upperback -1.3052114700456503 3.411616240429183 1.2384722397675973
thorax -7.70236497587617 1.4143820416801125 -1.6468235547667032
lowerneck -18.215569054783067 -5.0595473320408 -1.9562117140015092
upperneck 14.964994142971385 -7.4713597706043275 1.8173899735497479
head 7.294435961505003 -3.554773544636504 -0.11769282867726016
lclavicle -6.511813782322105e-16 -4.873767475809732e-15
lhumerus -69.05855461945607 -5.8986876696340556 95.94178716904673
lradius 107.51839766629617
lwrist 29.36787424414233
lhand -32.251363274775436 1.1556952674014591
lfingers 7.125019999999998
lthumb -5.8329132450004035 30.68730691306206
rclavicle -6.489362635832448e-16 -4.861539542599832e-15
rhumerus -49.62563794496674 13.633906857349992 -98.39558569591439
rradius 125.23847201342194
rwrist -15.658425998653794
rhand -17.047007286536598 35.20802658766189
rfingers 7.125019999999998
rthumb 8.563585657141605 5.468133821424396
23
root -0.44744114415142316 17.634921267070805 -12.232766019077093 2.2935530540434748 0.8210083007430224 -2.0498923134138467
lfemur -28.711055817310054 -3.5351485052342175 -21.74831841544757
ltibia 39.06096644732263
lfoot -4.134740136998017 -7.8160473775670445
ltoes -22.441069587040207
rfemur -4.212249422475729 3.147496566907292 26.642293127563427
rtibia 51.01014387863469
rfoot 7.874366783876036 -7.175955801134437
rtoes 15.397257535490173
lowerback 12.224955627043594 1.7747138141681158 2.6761653250010644
upperback -1.1491505464575043 3.253732847122961 1.0177585325478935
thorax -7.666677690429493 1.4656849041426996 -1.5856440081568755
lowerneck -18.10922531353013 -4.777833010383266 -2.0420291596393283
upperneck 14.852029173221233 -7.137679278590696 1.7981080378885095
head 7.245555436549361 -3.553821523530093 -0.05481581009020009
lclavicle -6.512239809317592e-16 -4.8737646876138185e-15
lhumerus -68.83562789101644 -5.3587389878894065 95.19095906216911
lradius 109.8989203769941
lwrist 28.58015405364514
lhand -31.851039672490998 1.1471028793733236
lfingers 7.125019999999998
lthumb -5.412202153855988 30.785976794111036
rclavicle -6.489479192950884e-16 -4.861548082641215e-15
rhumerus -50.33185565510135 12.865068323792928 -97.67606839193472
rradius 124.17278402521484
rwrist -15.19322703565782
rhand -16.93130070644522 34.74322895144497
rfingers 7.125019999999998
rthumb 8.61651996465864 4.782850247530023
24
root -0.41100494013619654 17.549379518870715 -10.880778558529919 1.8837283693428533 -0.9180919256278683 -1.585567428008027
lfemur -25.59899866988544 -3.3689220618551565 -23.18067568966479
ltibia 39.83177781909551
lfoot -2.7697439681229716 -8.557638178423886
ltoes -18.359734688695298
rfemur -11.480711498401519 3.0819110136461365 25.188808178431117
rtibia 63.47345334994509
rfoot 5.961260514611604 -6.37296771434603
rtoes 14.025511755442016
lowerback 13.2980769636151 1.7581394522116245 2.0872087108256965
upperback -0.9821897789578461 2.9632250889177705 0.6956078333620936
thorax -7.887886252886225 1.4922778374049996 -1.5908906831030007
lowerneck -17.81350856506692 -4.628665260288199 -2.0754270271211714
upperneck 14.579518331905017 -7.044078917035342 1.691579356454993
head 7.228113490254242 -3.6028941593237063 -0.05847659070535538
lclavicle -6.512385609791104e-16 -4.873743469356701e-15
lhumerus -67.44222254599478 -4.878282596488949 94.63479451871108
lradius 112.55149303576148
lwrist 27.469135650813964
lhand -31.756292913864453 1.1378280682021331
lfingers 7.125019999999998
lthumb -5.2530003621000585 30.901422300170516
rclavicle -6.489532793710405e-16 -4.861551574094064e-15
rhumerus -50.60351043255531 11.838528372649497 -96.820786276823
rradius 122.45979230294085
rwrist -15.253304143487775
rhand -16.946226855741482 34.122923557328996
rfingers 7.125019999999998
rthumb 8.634121523161726 4.4621154573459885
25
root -0.38667100714568514 17.436661354875888 -9.353429572019209 1.8084442923812707 -2.524642717039675 -0.49936407040176967
lfemur -22.530934347981805 -3.120360098411359 -24.703666662033527
ltibia 39.94452206730105
lfoot -3.5165419949008903 -9.312893753279976
ltoes -10.425946758695362
rfemur -18.4244627316263 2.491886835457462 24.456619781205475
rtibia 79.34627518162286
rfoot 5.015042367314976 -6.464393961371927
rtoes 12.89706166803789
lowerback 14.597915995983886 1.6449751931081154 1.3352053385653653
upperback -0.8441653694977896 2.6623556292513393 0.4183234141210075
thorax -8.311365161193997 1.4685017335971802 -1.5005148512141013
lowerneck -17.734008794774752 -4.636224558449467 -2.119064371856168
upperneck 14.526575797806414 -7.074046428545394 1.855098629274154
head 7.286395687373049 -3.49101508618367 0.017678801490245255
lclavicle -6.512966037068585e-16 -4.873792069684152e-15
lhumerus -65.69736227259457 -5.326439960303411 94.75910263232556
lradius 115.2832770835973
lwrist 26.343326455144506
lhand -31.920860787887577 0.8868863628121325
lfingers 7.125019999999998
lthumb -5.360470073541844 30.70258288170497
rclavicle -6.489676324848705e-16 -4.861561748361059e-15
rhumerus -50.99013083861689 10.607836024800346 -95.78477320893263
rradius 120.23706628712229
rwrist -15.161019971488434
rhand -17.05367388003159 35.171650882448496
rfingers 7.125019999999998
rthumb 8.695341669336596 5.156743778629685
26
root -0.3920193672553601 17.44812933097451 -8.162930062702292 1.9278290186133882 -2.961732688951612 0.5362425160754045
lfemur -19.294666077868392 -3.2618588674964877 -26.34262922858016
ltibia 39.925896795643084
lfoot -3.484023704317385 -9.79677721415869
ltoes -8.851516464947823
rfemur -24.123261624611168 1.4751422875039366 24.16339402396619
rtibia 96.48735772254864
rfoot 7.125352590114909 -6.966767982269094
rtoes 10.851975007730376
lowerback 15.473815442919163 1.4230149682645137 0.41342840713710527
upperback -0.6700853658864615 2.3499220004278016 0.05858123254273773
thorax -8.489362785836795 1.4369667064886293 -1.3653219799192096
lowerneck -17.486677490231273 -4.628464990247423 -2.1557991902150984
upperneck 14.36383547077054 -7.13283998535609 1.9215767788968119
head 7.292833537806379 -3.3190060467777673 0.0594875484500067
lclavicle -6.512850802388658e-16 -4.873795964296544e-15
lhumerus -63.107719730846725 -6.676620478365305 95.45969169150463
lradius 117.8197804374825
lwrist 25.685340954464436
lhand -31.83335075696047 0.799534611047305
lfingers 7.125019999999998
lthumb -5.365866670339045 30.541304857256662
rclavicle -6.48978896781158e-16 -4.86156927744415e-15
rhumerus -51.473959420557506 9.243492729156223 -94.69539566887708
rradius 117.90533875380783
rwrist -14.408385187876704
rhand -17.095970191609467 37.21876133844211
rfingers 7.125019999999998
rthumb 8.74428097340336 6.960164709752868
